rotated_Sprint_05400001_forces_filt50Hz.mot
version=1
nRows=28
nColumns=19
inDegrees=yes
endheader
time	R_ground_force_vx	R_ground_force_vy	R_ground_force_vz	R_ground_force_px	R_ground_force_py	R_ground_force_pz	R_ground_torque_x	R_ground_torque_y	R_ground_torque_z	L_ground_force_vx	L_ground_force_vy	L_ground_force_vz	L_ground_force_px	L_ground_force_py	L_ground_force_pz	L_ground_torque_x	L_ground_torque_y	L_ground_torque_z	
0.904500	  0.000000	  0.000000	  0.000000	  0.549488	  0.000000	 -0.619230	  0.000000	  0.000000	  0.000000	-86.343523	2817.452203	 91.300719	  0.793325	  0.000000	 -0.346840	  0.000000	 -4.013882	  0.000000
0.905000	  0.000000	  0.000000	  0.000000	  0.550140	  0.000000	 -0.617807	  0.000000	  0.000000	  0.000000	-79.270789	2813.957126	 89.550025	  0.790820	  0.000000	 -0.346884	  0.000000	 -3.488911	  0.000000
0.905500	  0.000000	  0.000000	  0.000000	  0.550771	  0.000000	 -0.616324	  0.000000	  0.000000	  0.000000	-72.226509	2810.319813	 87.829429	  0.788340	  0.000000	 -0.346918	  0.000000	 -2.966133	  0.000000
0.906000	  0.000000	  0.000000	  0.000000	  0.551403	  0.000000	 -0.614841	  0.000000	  0.000000	  0.000000	-65.206648	2806.533169	 86.159061	  0.785880	  0.000000	 -0.346944	  0.000000	 -2.450232	  0.000000
0.906500	  0.000000	  0.000000	  0.000000	  0.552034	  0.000000	 -0.613358	  0.000000	  0.000000	  0.000000	-58.207160	2802.590230	 84.557266	  0.783439	  0.000000	 -0.346960	  0.000000	 -1.946050	  0.000000
0.907000	  0.000000	  0.000000	  0.000000	  0.552666	  0.000000	 -0.611875	  0.000000	  0.000000	  0.000000	-51.224008	2798.484428	 83.040347	  0.781013	  0.000000	 -0.346967	  0.000000	 -1.458532	  0.000000
0.907500	  0.000000	  0.000000	  0.000000	  0.553297	  0.000000	 -0.610393	  0.000000	  0.000000	  0.000000	-44.253164	2794.209808	 81.622350	  0.778601	  0.000000	 -0.346965	  0.000000	 -0.992658	  0.000000
0.908000	  0.000000	  0.000000	  0.000000	  0.553929	  0.000000	 -0.608910	  0.000000	  0.000000	  0.000000	-37.290603	2789.761186	 80.314892	  0.776200	  0.000000	 -0.346954	  0.000000	 -0.553399	  0.000000
0.908500	  0.000000	  0.000000	  0.000000	  0.554560	  0.000000	 -0.607427	  0.000000	  0.000000	  0.000000	-30.332305	2785.134255	 79.127068	  0.773809	  0.000000	 -0.346933	  0.000000	 -0.145687	  0.000000
0.909000	  0.000000	  0.000000	  0.000000	  0.555192	  0.000000	 -0.605944	  0.000000	  0.000000	  0.000000	-23.374276	2780.325628	 78.065426	  0.771426	  0.000000	 -0.346904	  0.000000	  0.225577	  0.000000
0.909500	  0.000000	  0.000000	  0.000000	  0.555824	  0.000000	 -0.604461	  0.000000	  0.000000	  0.000000	-16.412609	2775.332816	 77.134044	  0.769051	  0.000000	 -0.346866	  0.000000	  0.555490	  0.000000
0.910000	  0.000000	  0.000000	  0.000000	  0.556455	  0.000000	 -0.602978	  0.000000	  0.000000	  0.000000	 -9.443582	2770.154156	 76.334697	  0.766682	  0.000000	 -0.346819	  0.000000	  0.839105	  0.000000
0.910500	  0.000000	  0.000000	  0.000000	  0.557154	  0.000000	 -0.601334	  0.000000	  0.000000	  0.000000	 -2.463779	2764.788674	 75.667091	  0.764319	  0.000000	 -0.346764	  0.000000	  1.071383	  0.000000
0.911000	  0.000000	  0.000000	  0.000000	  0.557853	  0.000000	 -0.599690	  0.000000	  0.000000	  0.000000	  4.529776	2759.235929	 75.129134	  0.761961	  0.000000	 -0.346700	  0.000000	  1.247169	  0.000000
0.911500	  0.000000	  0.000000	  0.000000	  0.558553	  0.000000	 -0.598046	  0.000000	  0.000000	  0.000000	 11.539492	2753.495814	 74.717183	  0.759609	  0.000000	 -0.346629	  0.000000	  1.361194	  0.000000
0.912000	  0.000000	  0.000000	  0.000000	  0.559252	  0.000000	 -0.596402	  0.000000	  0.000000	  0.000000	 18.567111	2747.568373	 74.426245	  0.757261	  0.000000	 -0.346550	  0.000000	  1.408118	  0.000000
0.912500	  0.000000	  0.000000	  0.000000	  0.559951	  0.000000	 -0.594758	  0.000000	  0.000000	  0.000000	 25.613634	2741.453633	 74.250120	  0.754917	  0.000000	 -0.346464	  0.000000	  1.382625	  0.000000
0.913000	  0.000000	  0.000000	  0.000000	  0.560650	  0.000000	 -0.593114	  0.000000	  0.000000	  0.000000	 32.679272	2735.151506	 74.181486	  0.752576	  0.000000	 -0.346371	  0.000000	  1.279551	  0.000000
0.913500	  0.000000	  0.000000	  0.000000	  0.561349	  0.000000	 -0.591470	  0.000000	  0.000000	  0.000000	 39.763423	2728.661772	 74.211947	  0.750238	  0.000000	 -0.346272	  0.000000	  1.094056	  0.000000
0.914000	  0.000000	  0.000000	  0.000000	  0.562049	  0.000000	 -0.589826	  0.000000	  0.000000	  0.000000	 46.864645	2721.984157	 74.332047	  0.747902	  0.000000	 -0.346165	  0.000000	  0.821808	  0.000000
0.914500	  0.000000	  0.000000	  0.000000	  0.562748	  0.000000	 -0.588182	  0.000000	  0.000000	  0.000000	 53.980636	2715.118457	 74.531254	  0.745567	  0.000000	 -0.346053	  0.000000	  0.459172	  0.000000
0.915000	  0.000000	  0.000000	  0.000000	  0.563447	  0.000000	 -0.586538	  0.000000	  0.000000	  0.000000	 61.108224	2708.064670	 74.797938	  0.743232	  0.000000	 -0.345934	  0.000000	  0.003381	  0.000000
0.915500	  0.000000	  0.000000	  0.000000	  0.564230	  0.000000	 -0.584785	  0.000000	  0.000000	  0.000000	 68.243376	2700.823097	 75.119355	  0.740897	  0.000000	 -0.345809	  0.000000	 -0.547316	  0.000000
0.916000	  0.000000	  0.000000	  0.000000	  0.565013	  0.000000	 -0.583032	  0.000000	  0.000000	  0.000000	 75.381246	2693.394378	 75.481666	  0.738560	  0.000000	 -0.345679	  0.000000	 -1.193546	  0.000000
0.916500	  0.000000	  0.000000	  0.000000	  0.565796	  0.000000	 -0.581279	  0.000000	  0.000000	  0.000000	 82.516279	2685.779499	 75.870002	  0.736221	  0.000000	 -0.345543	  0.000000	 -1.934734	  0.000000
0.917000	  0.000000	  0.000000	  0.000000	  0.566579	  0.000000	 -0.579526	  0.000000	  0.000000	  0.000000	 89.642368	2677.979780	 76.268573	  0.733879	  0.000000	 -0.345401	  0.000000	 -2.769056	  0.000000
0.917500	  0.000000	  0.000000	  0.000000	  0.567362	  0.000000	 -0.577773	  0.000000	  0.000000	  0.000000	 96.753047	2669.996877	 76.660816	  0.731535	  0.000000	 -0.345253	  0.000000	 -3.693438	  0.000000
0.918000	  0.000000	  0.000000	  0.000000	  0.568145	  0.000000	 -0.576020	  0.000000	  0.000000	  0.000000	103.841712	2661.832796	 77.029556	  0.729188	  0.000000	 -0.345100	  0.000000	 -4.703568	  0.000000
